<?xml version="1.0" encoding="UTF-8"?>
<svg version="1.1" xmlns="http://www.w3.org/2000/svg" width="1280" height="1024">
<path d="M0 0 C1.17175781 0.92232422 1.17175781 0.92232422 2.3671875 1.86328125 C3.12773438 2.44722656 3.88828125 3.03117187 4.671875 3.6328125 C17.50099129 14.17577139 26.38287153 30.37992329 28.3671875 46.86328125 C28.90229149 55.51070837 28.7170458 64.19261867 28.66015625 72.8515625 C28.65455268 75.36646775 28.65028618 77.8813763 28.64729309 80.39628601 C28.63706421 86.30685993 28.61349415 92.2172592 28.58324462 98.12776202 C28.54620359 105.52850368 28.53026273 112.92926727 28.51367188 120.33007812 C28.48161313 133.50789825 28.43107614 146.68557892 28.3671875 159.86328125 C26.47474255 159.738064 24.58292208 159.60339018 22.69140625 159.46484375 C21.63783936 159.39088379 20.58427246 159.31692383 19.4987793 159.24072266 C7.99934305 157.85472995 -0.90661945 150.55426344 -8.1328125 141.90625 C-14.67977379 132.98942512 -16.75443719 122.90390313 -16.75878906 111.98510742 C-16.7606572 111.33690536 -16.76252533 110.68870331 -16.76445007 110.02085876 C-16.76842508 108.62574342 -16.77052622 107.23062168 -16.77091217 105.83550072 C-16.77436737 102.85381487 -16.79577711 99.87233946 -16.81614304 96.89072895 C-16.85394633 91.35575196 -16.88543159 85.82101007 -16.88330078 80.28588867 C-16.882509 76.41954784 -16.90606635 72.55399506 -16.9451828 68.68786049 C-16.95556662 67.22525905 -16.95722361 65.76256581 -16.94953156 64.29994774 C-16.90848755 55.63185505 -17.32544232 48.08984931 -22.6328125 40.86328125 C-28.21458178 35.4981054 -33.72888349 32.84723434 -41.5078125 32.55078125 C-48.27560186 32.71337078 -54.18070769 34.58042956 -59.26130676 39.25027466 C-65.54852091 46.64456954 -66.37184323 54.50192513 -66.33984375 63.87109375 C-66.35496506 65.07772675 -66.37008636 66.28435974 -66.38566589 67.52755737 C-66.42834911 71.34799166 -66.43736285 75.16763284 -66.4453125 78.98828125 C-66.46847163 81.59246872 -66.49383988 84.19663753 -66.52148438 86.80078125 C-66.58826831 93.15537362 -66.6094311 99.50779129 -66.6328125 105.86328125 C-81.4828125 105.86328125 -96.3328125 105.86328125 -111.6328125 105.86328125 C-111.69602707 98.40162082 -111.7560952 90.94095147 -111.78806305 83.47925568 C-111.80379113 80.00322303 -111.82474563 76.52741608 -111.85913086 73.05151367 C-111.89848624 69.04734327 -111.91261662 65.04340537 -111.92578125 61.0390625 C-111.94126511 59.81560623 -111.95674896 58.59214996 -111.97270203 57.33161926 C-111.97483607 46.21615696 -110.22454665 35.64289416 -105.0078125 25.73828125 C-104.48731323 24.73172485 -104.48731323 24.73172485 -103.95629883 23.70483398 C-94.74648336 6.50920131 -79.67584732 -5.16984756 -61.1953125 -11.01171875 C-40.57356646 -16.84040547 -17.14287677 -12.78869561 0 0 Z " fill="#3586B4" transform="translate(681.6328125,228.13671875)"/>
<path d="M0 0 C1.43502146 -0.01611193 2.87009549 -0.02758407 4.30517578 -0.03710938 C5.10432404 -0.0439978 5.90347229 -0.05088623 6.72683716 -0.0579834 C16.36764679 0.18793251 25.09301379 5.67655333 32 12 C41.41248752 22.44074246 45.09961664 33.87472077 45.1418457 47.80224609 C45.14888016 49.11405853 45.15591461 50.42587097 45.16316223 51.7774353 C45.16497812 52.46902111 45.16679401 53.16060692 45.16866493 53.87314987 C45.17590423 56.0605975 45.19162402 58.24783021 45.21000671 60.43521118 C45.26213478 66.6501373 45.31042259 72.86493793 45.32592773 79.08007812 C45.33606253 82.89447061 45.36551579 86.70830788 45.40724754 90.52248001 C45.41947557 91.96636362 45.42469394 93.41032585 45.42244911 94.85425949 C45.41148847 104.20260651 45.88326021 111.79897971 51.82421875 119.3046875 C58.05092503 124.55235191 63.78092443 127.43211171 72.0625 126.9375 C80.23012871 125.72373474 85.18507158 122.36412707 90.5546875 116.1953125 C94.75021401 109.8226479 94.34016763 102.95967494 94.4140625 95.6015625 C94.43342865 94.41146576 94.4527948 93.22136902 94.4727478 91.99520874 C94.53238503 88.20521139 94.57886616 84.41518341 94.625 80.625 C94.66319431 78.05076822 94.70224689 75.47654903 94.7421875 72.90234375 C94.83968405 66.60162906 94.91938059 60.3010436 95 54 C109.85 54 124.7 54 140 54 C140.0843758 61.42741451 140.16445087 68.85304739 140.20700073 76.28052521 C140.22793997 79.74085949 140.25581629 83.20078835 140.30175781 86.66088867 C140.60863894 110.40959574 139.43930244 130.35749208 123 149 C122.34386719 149.75023437 121.68773437 150.50046875 121.01171875 151.2734375 C108.10999942 165.09502348 90.67046387 171.92473768 72 173 C52.26365514 172.97880092 34.4706771 166.6068085 20.484375 152.59375 C19.66453125 151.7378125 18.8446875 150.881875 18 150 C17.07960938 149.05640625 17.07960938 149.05640625 16.140625 148.09375 C6.5902173 137.657222 -0.13610759 122.36072026 -0.12025452 108.10881042 C-0.12162918 107.1511377 -0.12300385 106.19346497 -0.12442017 105.20677185 C-0.12082489 104.16811478 -0.11722961 103.1294577 -0.11352539 102.05932617 C-0.11367142 100.95644257 -0.11381744 99.85355896 -0.1139679 98.71725464 C-0.11327184 95.07580593 -0.10549373 91.43440851 -0.09765625 87.79296875 C-0.09579098 85.26662728 -0.09436759 82.74028544 -0.09336853 80.21394348 C-0.08994192 74.24650924 -0.08206226 68.27909699 -0.07201904 62.31167156 C-0.06083089 55.51604054 -0.05534065 48.72040864 -0.05032361 41.92477071 C-0.03987891 27.94983698 -0.02229632 13.97491949 0 0 Z " fill="#406BA4" transform="translate(570,439)"/>
<path d="M0 0 C1.62550278 -0.00021904 1.62550278 -0.00021904 3.28384399 -0.0004425 C6.84948764 0.00025163 10.41507842 0.00802063 13.98071289 0.01586914 C16.45935538 0.01773509 18.93799824 0.01915816 21.41664124 0.02015686 C27.92840602 0.02396807 34.44014836 0.03378642 40.9519043 0.04486084 C47.60147681 0.0556481 54.25105588 0.05966092 60.90063477 0.06469727 C73.93905578 0.07540995 86.97746126 0.09227634 100.01586914 0.11352539 C99.86705899 1.88117183 99.71488418 3.64853524 99.5612793 5.41577148 C99.47689606 6.40000092 99.39251282 7.38423035 99.30557251 8.39828491 C98.05448343 20.12409856 91.00992597 29.20015475 82.17993164 36.54711914 C71.45334246 44.31131095 60.43327055 45.40029919 47.56086731 45.38792038 C45.31436803 45.38694321 43.06833184 45.40003462 40.82189941 45.41690063 C34.44144166 45.46282409 28.06103771 45.48777206 21.68041992 45.49438477 C17.76001875 45.49942433 13.84010991 45.52378741 9.9198761 45.55971146 C8.43690458 45.56944381 6.95386482 45.57187762 5.47087097 45.56653976 C-2.74550613 45.53833746 -9.7743558 45.77652144 -16.98413086 50.11352539 C-17.89163086 50.64977539 -18.79913086 51.18602539 -19.73413086 51.73852539 C-24.98011387 57.2759519 -27.29896669 63.12285208 -27.54663086 70.73852539 C-27.13529997 79.72452326 -24.08560809 84.58138147 -17.57006836 90.57055664 C-9.97789665 95.10062888 -1.70929555 95.57226913 6.92993164 95.62524414 C8.02558441 95.64319534 9.12123718 95.66114655 10.25009155 95.67964172 C13.71364615 95.73337081 17.17706593 95.76752027 20.64086914 95.80102539 C23.004169 95.83423145 25.36745116 95.86872411 27.73071289 95.90454102 C33.49244704 95.99147244 39.25358888 96.05186261 45.01586914 96.11352539 C45.01586914 110.63352539 45.01586914 125.15352539 45.01586914 140.11352539 C37.4067018 140.17670113 29.79850251 140.23677431 22.18930054 140.26877594 C18.64472048 140.28451839 15.10036099 140.30550068 11.5559082 140.33984375 C7.47483368 140.37913201 3.39398719 140.39331765 -0.68725586 140.40649414 C-2.56299286 140.42971992 -2.56299286 140.42971992 -4.47662354 140.45341492 C-15.33264087 140.45546425 -25.27523829 138.56457757 -34.98413086 133.61352539 C-35.65492676 133.27458252 -36.32572266 132.93563965 -37.0168457 132.58642578 C-44.047878 128.8401647 -49.50633122 123.83248603 -54.98413086 118.11352539 C-55.90452148 117.16993164 -55.90452148 117.16993164 -56.84350586 116.20727539 C-70.87965612 100.86880191 -73.66271879 81.67272649 -73.10717773 61.69018555 C-72.30965694 44.98972043 -62.2117102 28.98400027 -50.46069336 17.68774414 C-35.88288148 4.96956515 -19.03933394 -0.06758888 0 0 Z " fill="#3782B2" transform="translate(514.984130859375,342.886474609375)"/>
<path d="M0 0 C7.7192573 -0.06924251 15.43741674 -0.12886659 23.15673828 -0.16479492 C25.77721834 -0.17978844 28.39767371 -0.20019002 31.01806641 -0.22631836 C34.80637748 -0.2631191 38.59435393 -0.27982142 42.3828125 -0.29296875 C43.53548615 -0.30845261 44.68815979 -0.32393646 45.87576294 -0.33988953 C63.04743265 -0.34336329 78.47737954 4.35595717 92 15 C92.76054688 15.58394531 93.52109375 16.16789062 94.3046875 16.76953125 C107.3306361 27.4742468 115.58776702 43.4292095 118 60 C119.74154864 80.04040119 116.01081803 99.02057584 102.89453125 114.8515625 C102.26933594 115.56054688 101.64414062 116.26953125 101 117 C100.01580078 118.12535156 100.01580078 118.12535156 99.01171875 119.2734375 C88.67967406 130.3421362 73.0380923 139.33465308 57.58876324 140.12304783 C56.74532266 140.12212604 55.90188208 140.12120424 55.03288269 140.12025452 C54.05838165 140.12162918 53.08388062 140.12300385 52.07984924 140.12442017 C51.02249069 140.12082489 49.96513214 140.11722961 48.87573242 140.11352539 C47.75334167 140.11367142 46.63095093 140.11381744 45.47454834 140.1139679 C41.76816875 140.11327176 38.06183955 140.10549328 34.35546875 140.09765625 C31.78428678 140.09579101 29.21310445 140.09436761 26.641922 140.09336853 C20.56824059 140.08994173 14.49457995 140.08206183 8.42090636 140.07201904 C1.50435862 140.06083146 -5.41218999 140.05534079 -12.32874453 140.05032361 C-26.55250604 140.0398785 -40.77625238 140.02229555 -55 140 C-54.73389973 137.79809125 -54.45377859 135.59787475 -54.16796875 133.3984375 C-54.01352295 132.17302246 -53.85907715 130.94760742 -53.69995117 129.68505859 C-51.74279037 119.38112239 -45.73634825 110.37727498 -37.4609375 104.0625 C-27.15326156 97.09393035 -17.75951232 95.56215067 -5.46983337 95.58930969 C-3.23127565 95.59385139 -0.99348239 95.57961278 1.24499512 95.56091309 C6.80011285 95.51824671 12.35520873 95.50692773 17.91046143 95.49468994 C22.62049263 95.48309271 27.33017078 95.45934339 32.04005432 95.41999817 C34.22799271 95.4065767 36.41543127 95.41057008 38.60339355 95.41540527 C49.23382816 95.37327697 58.43241551 94.59870069 66.3046875 86.93359375 C71.62400476 80.86663052 72.73049934 75.30188494 72.44140625 67.25390625 C71.48410046 60.19695293 68.6374679 54.94071339 63.0625 50.5 C56.13305567 45.60527957 49.00170019 45.66969302 40.8203125 45.5859375 C39.6524118 45.56657135 38.48451111 45.5472052 37.28121948 45.5272522 C33.56255322 45.46762339 29.84385572 45.42113726 26.125 45.375 C23.59894507 45.33680491 21.07290295 45.29775229 18.546875 45.2578125 C12.36465117 45.16032671 6.18255864 45.08062362 0 45 C0 30.15 0 15.3 0 0 Z " fill="#3E6FA7" transform="translate(720,343)"/>
<path d="M0 0 C0.74958984 0.00902344 1.49917969 0.01804687 2.27148438 0.02734375 C4.11862654 0.05087422 5.96560412 0.08674439 7.8125 0.125 C11.91150168 8.84396587 15.52163383 17.73277901 19.0625 26.6875 C19.87375845 28.73322982 20.68578721 30.77864947 21.49871826 32.82371521 C22.22622832 34.65475061 22.95155575 36.48665278 23.67675781 38.31860352 C24.72665031 41.01914697 24.72665031 41.01914697 25.8125 43.125 C26.4626709 41.48301636 26.4626709 41.48301636 27.12597656 39.80786133 C28.74243179 35.73225648 30.37024769 31.66126921 32.00146484 27.59155273 C32.70475025 25.83236828 33.40498374 24.07196043 34.10205078 22.31030273 C35.10682509 19.77256677 36.1226357 17.23949028 37.140625 14.70703125 C37.44808655 13.92350784 37.7555481 13.13998444 38.07232666 12.3327179 C42.0550816 2.5037092 42.0550816 2.5037092 46.8125 0.125 C48.18798156 0.04191362 49.56735796 0.01763984 50.9453125 0.02734375 C51.75097656 0.03056641 52.55664062 0.03378906 53.38671875 0.03710938 C54.64935547 0.04967773 54.64935547 0.04967773 55.9375 0.0625 C56.78699219 0.06701172 57.63648438 0.07152344 58.51171875 0.07617188 C60.61200909 0.08797126 62.7122633 0.10590694 64.8125 0.125 C65.20646047 8.29672409 65.59782 16.468567 65.98595428 24.64056969 C66.16630328 28.43605967 66.34751309 32.23150429 66.53076172 36.02685547 C66.70791601 39.69666587 66.88271564 43.36658186 67.05595398 47.03657913 C67.12210537 48.42947944 67.18907329 49.82234123 67.25691223 51.21516037 C67.62857447 58.85755548 67.91878923 66.4728781 67.8125 74.125 C58.06696082 74.73942979 58.06696082 74.73942979 53.75 72.625 C49.63010687 67.30900886 49.48015352 60.19835151 49.1796875 53.6875 C49.13812531 52.92195801 49.09656311 52.15641602 49.05374146 51.36767578 C48.92435006 48.95376866 48.8057384 46.53947642 48.6875 44.125 C48.60097662 42.4752227 48.51374351 40.82548246 48.42578125 39.17578125 C48.21315574 35.15923547 48.01018713 31.14230759 47.8125 27.125 C47.50022461 27.91148926 47.18794922 28.69797852 46.86621094 29.50830078 C45.69381008 32.45145215 44.51522401 35.39203028 43.33251953 38.33105469 C42.82387815 39.59862642 42.31764544 40.86716765 41.81396484 42.13671875 C41.08559639 43.97134186 40.3475588 45.80211667 39.609375 47.6328125 C39.16948242 48.73254395 38.72958984 49.83227539 38.27636719 50.96533203 C36.11926895 55.62129691 34.12111524 59.25258984 29.8125 62.125 C27.7265625 62.49609375 27.7265625 62.49609375 25.4375 62.5625 C24.68726563 62.60246094 23.93703125 62.64242187 23.1640625 62.68359375 C19.60421384 61.83798186 18.13844599 59.88350365 15.8125 57.125 C14.22265625 54.3203125 14.22265625 54.3203125 12.875 51.25 C12.37742187 50.12335937 11.87984375 48.99671875 11.3671875 47.8359375 C9.41081725 43.21790683 7.54285937 38.56286356 5.72875977 33.88720703 C4.66695003 30.76935304 4.66695003 30.76935304 2.8125 28.125 C2.76762451 29.24471191 2.72274902 30.36442383 2.67651367 31.51806641 C2.505704 35.68963016 2.31691329 39.86022262 2.12280273 44.03076172 C2.04142902 45.83263144 1.96487143 47.63472561 1.89331055 49.43701172 C1.78933394 52.03427566 1.66780789 54.63022773 1.54296875 57.2265625 C1.5005732 58.42691635 1.5005732 58.42691635 1.45732117 59.65151978 C1.20530789 64.46415423 0.472633 67.9629302 -2.1875 72.125 C-5.71429099 74.47619399 -7.21629485 74.33943452 -11.375 74.25 C-12.46167969 74.23195313 -13.54835938 74.21390625 -14.66796875 74.1953125 C-15.49941406 74.17210937 -16.33085938 74.14890625 -17.1875 74.125 C-16.86432169 65.62258448 -16.52629228 57.12094291 -16.16948223 48.61987877 C-16.00424896 44.67212399 -15.84406739 40.72430095 -15.69555664 36.77587891 C-15.55194752 32.96278228 -15.39490433 29.15045116 -15.22867775 25.33827591 C-15.16771185 23.88648257 -15.11152378 22.43448018 -15.06027794 20.98231125 C-14.98745834 18.94235796 -14.89741181 16.90382108 -14.8034668 14.86474609 C-14.75683395 13.70558685 -14.71020111 12.54642761 -14.66215515 11.35214233 C-14.12805296 7.72082432 -13.09409559 5.25112589 -11.1875 2.125 C-7.39586973 -0.40275351 -4.37875969 -0.09943035 0 0 Z " fill="#4B4990" transform="translate(556.1875,659.875)"/>
<path d="M0 0 C1.29679688 -0.00515625 2.59359375 -0.0103125 3.9296875 -0.015625 C4.93757324 -0.00305664 4.93757324 -0.00305664 5.96582031 0.00976562 C7.99667873 0.03105142 10.02394322 0.0100182 12.0546875 -0.015625 C20.08326369 0.01617134 27.65947305 0.29327564 33.83862305 5.97851562 C39.41060423 12.31914907 40.15170651 18.30840612 40.265625 26.53125 C39.78796035 33.43085048 37.32089713 37.86298434 32.265625 42.53125 C30.93767818 43.53839201 29.60492971 44.53926176 28.265625 45.53125 C28.7095459 46.23209717 29.1534668 46.93294434 29.61083984 47.6550293 C31.26534594 50.27145251 32.91612209 52.89018098 34.56445312 55.51049805 C35.62606619 57.1956402 36.6919111 58.87811394 37.7578125 60.56054688 C38.76328125 62.1605957 38.76328125 62.1605957 39.7890625 63.79296875 C40.40700684 64.77225342 41.02495117 65.75153809 41.66162109 66.76049805 C43.13448739 69.30472325 44.25809469 71.77484067 45.265625 74.53125 C30.1223773 75.29691983 30.1223773 75.29691983 25.1328125 72.3203125 C19.86897741 67.27672155 16.26919417 60.24904457 12.83203125 53.87109375 C11.56475462 51.46790613 11.56475462 51.46790613 9.265625 48.53125 C5.68303409 47.78180969 5.68303409 47.78180969 2.265625 47.53125 C2.28657227 48.17674805 2.30751953 48.82224609 2.32910156 49.48730469 C2.41236705 52.41846068 2.46431706 55.34936777 2.515625 58.28125 C2.56589844 59.80492187 2.56589844 59.80492187 2.6171875 61.359375 C2.71642752 68.90161672 2.71642752 68.90161672 0.375 72.171875 C-3.15203341 74.44485208 -5.16363301 74.6425377 -9.359375 74.59375 C-10.36226562 74.58472656 -11.36515625 74.57570313 -12.3984375 74.56640625 C-13.16929687 74.55480469 -13.94015625 74.54320312 -14.734375 74.53125 C-14.80400268 66.29034324 -14.85725076 58.04956018 -14.88981152 49.80843163 C-14.90544208 45.981394 -14.92663218 42.15455821 -14.96069336 38.32763672 C-14.99338062 34.6317917 -15.01124763 30.93614035 -15.01900673 27.2401619 C-15.02453351 25.83280007 -15.03532601 24.42544839 -15.05156517 23.0181694 C-15.07346135 21.04135294 -15.07460144 19.06434004 -15.07495117 17.08740234 C-15.08161301 15.96377289 -15.08827484 14.84014343 -15.09513855 13.6824646 C-14.54707281 8.8951939 -12.7968656 5.62898911 -9.46777344 2.18945312 C-6.0868874 0.13845474 -3.93903971 0.01514599 0 0 Z M3.265625 14.53125 C2.36323753 17.23841242 2.14711198 18.76901768 2.16796875 21.54296875 C2.17119141 22.30029297 2.17441406 23.05761719 2.17773438 23.83789062 C2.18611328 24.62357422 2.19449219 25.40925781 2.203125 26.21875 C2.20763672 27.01603516 2.21214844 27.81332031 2.21679688 28.63476562 C2.2285665 30.60029257 2.24650152 32.56578085 2.265625 34.53125 C11.61113522 35.056244 11.61113522 35.056244 19.87109375 31.23046875 C22.40916578 28.13785997 22.3748475 24.41547517 22.265625 20.53125 C21.02409011 17.28946446 20.0735019 16.03023279 17.140625 14.21875 C12.73858104 13.16608731 7.4188864 12.4546193 3.265625 14.53125 Z " fill="#4B4990" transform="translate(789.734375,659.46875)"/>
<path d="M0 0 C1.27681641 -0.01998047 2.55363281 -0.03996094 3.86914062 -0.06054688 C12.45794095 -0.05613104 20.44260981 0.49172394 27.06640625 6.47265625 C27.49824219 7.14167969 27.93007813 7.81070313 28.375 8.5 C29.05755859 9.50740234 29.05755859 9.50740234 29.75390625 10.53515625 C33.29065158 16.89085726 32.93894102 27.21946815 31.09375 34.12890625 C28.81877363 38.96323103 25.53854009 42.07447995 20.8125 44.4375 C22.20955489 48.29182018 24.01361532 51.48185469 26.2890625 54.88671875 C26.959375 55.89927734 27.6296875 56.91183594 28.3203125 57.95507812 C29.01898437 59.00115234 29.71765625 60.04722656 30.4375 61.125 C31.8296839 63.20946513 33.21792477 65.29657102 34.6015625 67.38671875 C35.21725098 68.30799561 35.83293945 69.22927246 36.46728516 70.1784668 C37.8125 72.4375 37.8125 72.4375 37.8125 74.4375 C22.19004432 75.02252955 22.19004432 75.02252955 16.8125 71.4375 C13.39362864 67.96258157 11.02451532 63.85549041 8.68359375 59.61328125 C8.30251465 58.93749023 7.92143555 58.26169922 7.52880859 57.56542969 C6.77031763 56.20765703 6.03408942 54.83716227 5.32275391 53.45410156 C4.16064651 51.24840379 4.16064651 51.24840379 1.8125 48.4375 C-1.84273936 47.37859766 -1.84273936 47.37859766 -5.1875 47.4375 C-5.16655273 48.04746826 -5.14560547 48.65743652 -5.12402344 49.28588867 C-5.04057139 52.06542294 -4.98874989 54.8446932 -4.9375 57.625 C-4.88722656 59.06456055 -4.88722656 59.06456055 -4.8359375 60.53320312 C-4.73680748 67.69534723 -4.73680748 67.69534723 -7.078125 71.55078125 C-10.44092547 74.55861945 -12.38077131 74.55153173 -16.8125 74.5 C-17.81539063 74.49097656 -18.81828125 74.48195313 -19.8515625 74.47265625 C-20.62242187 74.46105469 -21.39328125 74.44945312 -22.1875 74.4375 C-22.25712306 66.06620892 -22.31037344 57.69503957 -22.34293652 49.3235302 C-22.35856807 45.43596009 -22.37976004 41.54858862 -22.41381836 37.66113281 C-22.44650201 33.90693341 -22.46437189 30.15292464 -22.47213173 26.3985939 C-22.47765915 24.96890387 -22.4884529 23.53922384 -22.50469017 22.10961533 C-22.52658159 20.10166416 -22.5277264 18.09351969 -22.52807617 16.08544922 C-22.53473801 14.94405487 -22.54139984 13.80266052 -22.54826355 12.62667847 C-22.02013851 7.95801109 -20.58020775 4.56504358 -16.9050293 1.58959961 C-11.54840209 -0.68134854 -5.7304189 -0.03134491 0 0 Z M-5.1875 16.4375 C-5.59807787 18.46120649 -5.59807787 18.46120649 -5.48046875 20.66796875 C-5.47080078 21.47041016 -5.46113281 22.27285156 -5.45117188 23.09960938 C-5.42603516 23.93298828 -5.40089844 24.76636719 -5.375 25.625 C-5.36146484 26.46998047 -5.34792969 27.31496094 -5.33398438 28.18554688 C-5.29865799 30.26980384 -5.24485139 32.35373277 -5.1875 34.4375 C1.31253644 34.79062069 6.03840528 34.56513464 11.8125 31.4375 C14.6418078 28.6081922 14.54595379 26.36905659 14.8125 22.4375 C13.8659468 18.96680495 12.63094694 16.69225755 9.8125 14.4375 C7.05202457 13.51734152 5.17887731 13.24482755 2.3125 13.1875 C1.5390625 13.16171875 0.765625 13.1359375 -0.03125 13.109375 C-2.77009924 13.52615641 -3.48275486 14.28874501 -5.1875 16.4375 Z " fill="#4B4990" transform="translate(486.1875,659.5625)"/>
<path d="M0 0 C4.29 0 8.58 0 13 0 C13 9.57 13 19.14 13 29 C20.92 29 28.84 29 37 29 C36.88170811 21.65554361 36.88170811 21.65554361 36.72973633 14.31176758 C36.72224365 13.39032959 36.71475098 12.4688916 36.70703125 11.51953125 C36.6913208 10.58214111 36.67561035 9.64475098 36.65942383 8.67895508 C37.06770492 5.46743647 38.11169302 3.60621369 40 1 C42.88415883 -0.44207941 45.41721528 -0.09394887 48.625 -0.0625 C49.81351562 -0.05347656 51.00203125 -0.04445313 52.2265625 -0.03515625 C53.14179688 -0.02355469 54.05703125 -0.01195312 55 0 C55.06956643 8.64932083 55.12284485 17.29854508 55.15543652 25.94808483 C55.17108035 29.96459536 55.19229492 33.98091422 55.22631836 37.99731445 C55.25895797 41.87470186 55.27686267 45.75190512 55.28463173 49.62941933 C55.29016701 51.10738333 55.30097619 52.58533746 55.31719017 54.06322289 C55.33902641 56.13636282 55.34196446 58.20874564 55.34057617 60.28198242 C55.34723801 61.46112717 55.35389984 62.64027191 55.36076355 63.85514832 C54.95553573 67.38760438 54.18522623 69.21255534 52 72 C48 74 48 74 37 74 C37 63.77 37 53.54 37 43 C29.08 43 21.16 43 13 43 C13.04640625 44.74667969 13.0928125 46.49335937 13.140625 48.29296875 C13.17814598 50.59112873 13.21454579 52.88930721 13.25 55.1875 C13.30027344 56.91323242 13.30027344 56.91323242 13.3515625 58.67382812 C13.36445313 59.78564453 13.37734375 60.89746094 13.390625 62.04296875 C13.41157227 63.06414795 13.43251953 64.08532715 13.45410156 65.13745117 C12.87764322 68.77130822 11.56203669 70.40586556 9 73 C5.85069107 74.04976964 3.61185544 74.10131595 0.3125 74.0625 C-0.68136719 74.05347656 -1.67523438 74.04445313 -2.69921875 74.03515625 C-3.45847656 74.02355469 -4.21773438 74.01195312 -5 74 C-5.06967257 65.6459797 -5.12289843 57.29208188 -5.15543652 48.93784237 C-5.17105735 45.05814754 -5.19222949 41.17865227 -5.22631836 37.29907227 C-5.25904056 33.55135208 -5.27687994 29.80382322 -5.28463173 26.05597115 C-5.29015227 24.62989861 -5.30093244 23.20383593 -5.31719017 21.77784538 C-5.46994781 7.81734298 -5.46994781 7.81734298 -2 2 C-1.34 1.34 -0.68 0.68 0 0 Z " fill="#4C4A90" transform="translate(308,660)"/>
<path d="M0 0 C4.29 0 8.58 0 13 0 C13.495 14.355 13.495 14.355 14 29 C15.15757812 27.24171875 16.31515625 25.4834375 17.5078125 23.671875 C18.6469854 21.95891551 19.79008813 20.24864348 20.93359375 18.53857422 C21.72126362 17.35610097 22.50487204 16.17091116 23.28417969 14.98291016 C24.41042982 13.26761104 25.55132383 11.56287954 26.6953125 9.859375 C27.37609863 8.83295898 28.05688477 7.80654297 28.75830078 6.74902344 C31.61512703 3.24566213 34.62550204 0.50154056 39.14990234 -0.45410156 C40.10823975 -0.42268066 40.10823975 -0.42268066 41.0859375 -0.390625 C42.13974609 -0.37128906 42.13974609 -0.37128906 43.21484375 -0.3515625 C44.28412109 -0.30128906 44.28412109 -0.30128906 45.375 -0.25 C46.47908203 -0.22292969 46.47908203 -0.22292969 47.60546875 -0.1953125 C49.40421736 -0.14859176 51.20228711 -0.07686183 53 0 C49.46072137 6.75150871 45.37842065 12.93690908 40.9375 19.125 C37.00279767 24.62280326 33.23015009 30.055235 30 36 C36.8594075 46.19226469 43.78733217 56.28713363 51.30371094 66.00976562 C53.33723985 68.66098762 54.93495756 70.80487268 56 74 C39.71123915 74.61769177 39.71123915 74.61769177 34 71 C28.53279368 65.67155526 24.28842524 59.31705472 20.0625 53 C19.47404297 52.12988281 18.88558594 51.25976562 18.27929688 50.36328125 C16.84798519 48.24540543 15.42168268 46.12434606 14 44 C13.98541748 44.6705542 13.97083496 45.3411084 13.95581055 46.03198242 C13.881117 49.08438822 13.78452701 52.13572585 13.6875 55.1875 C13.66494141 56.24259766 13.64238281 57.29769531 13.61914062 58.38476562 C13.58369141 59.40634766 13.54824219 60.42792969 13.51171875 61.48046875 C13.48553467 62.41785889 13.45935059 63.35524902 13.43237305 64.32104492 C12.91419054 67.53166979 11.95312614 69.40795154 10 72 C6.72750925 74.12428947 4.09989499 74.21666417 0.25 74.125 C-0.73484375 74.10695313 -1.7196875 74.08890625 -2.734375 74.0703125 C-3.48203125 74.04710937 -4.2296875 74.02390625 -5 74 C-5.06956643 65.35067917 -5.12284485 56.70145492 -5.15543652 48.05191517 C-5.17108035 44.03540464 -5.19229492 40.01908578 -5.22631836 36.00268555 C-5.25895797 32.12529814 -5.27686267 28.24809488 -5.28463173 24.37058067 C-5.29016701 22.89261667 -5.30097619 21.41466254 -5.31719017 19.93677711 C-5.33902641 17.86363718 -5.34196446 15.79125436 -5.34057617 13.71801758 C-5.34723801 12.53887283 -5.35389984 11.35972809 -5.36076355 10.14485168 C-4.84973134 5.69007648 -3.12584586 3.12584586 0 0 Z " fill="#4B4990" transform="translate(1004,660)"/>
<path d="M0 0 C0.83466797 0.01933594 1.66933594 0.03867187 2.52929688 0.05859375 C3.37685547 0.10886719 4.22441406 0.15914062 5.09765625 0.2109375 C5.97228516 0.23800781 6.84691406 0.26507812 7.74804688 0.29296875 C9.88649737 0.36308188 12.0236632 0.47068213 14.16015625 0.5859375 C19.29405908 16.98247868 24.34633061 33.4034409 29.33389282 49.84506226 C29.92715661 51.79979952 30.52137711 53.75424668 31.11654663 55.70840454 C31.95808664 58.47273614 32.79595947 61.23815269 33.6328125 64.00390625 C33.88864105 64.84222992 34.1444696 65.68055359 34.40805054 66.54428101 C36.16015625 72.35711978 36.16015625 72.35711978 36.16015625 74.5859375 C34.09831992 74.66744494 32.03554276 74.7253569 29.97265625 74.7734375 C28.24982422 74.82564453 28.24982422 74.82564453 26.4921875 74.87890625 C22.84273203 74.55802798 21.07020258 73.75675918 18.16015625 71.5859375 C14.91244896 67.41031385 14.97350059 65.27934786 14.16015625 59.5859375 C6.24015625 59.9159375 -1.67984375 60.2459375 -9.83984375 60.5859375 C-11.15984375 64.2159375 -12.47984375 67.8459375 -13.83984375 71.5859375 C-18.83194103 75.95402262 -25.55714217 74.81675465 -31.83984375 74.5859375 C-28.86135445 62.30188142 -25.3375562 50.19785256 -21.73486328 38.08447266 C-20.96618618 35.49483982 -20.21080438 32.90186153 -19.46630859 30.30517578 C-18.38330609 26.5286751 -17.26134834 22.76432492 -16.13671875 19 C-15.81040466 17.84368073 -15.48409058 16.68736145 -15.14788818 15.4960022 C-12.83891189 7.92875535 -9.25323358 -0.38289242 0 0 Z M1.16015625 16.5859375 C-0.01263089 20.8551144 -1.17702448 25.12653581 -2.33984375 29.3984375 C-2.67371094 30.61337891 -3.00757813 31.82832031 -3.3515625 33.08007812 C-3.66738281 34.24345703 -3.98320313 35.40683594 -4.30859375 36.60546875 C-4.60185547 37.67901611 -4.89511719 38.75256348 -5.19726562 39.85864258 C-5.95450911 42.60561653 -5.95450911 42.60561653 -5.83984375 45.5859375 C-0.55984375 45.5859375 4.72015625 45.5859375 10.16015625 45.5859375 C9.04351764 41.12535439 7.91728928 36.66758816 6.78515625 32.2109375 C6.46804688 30.93992187 6.1509375 29.66890625 5.82421875 28.359375 C5.51484375 27.14765625 5.20546875 25.9359375 4.88671875 24.6875 C4.60393066 23.56682129 4.32114258 22.44614258 4.02978516 21.29150391 C3.35082482 18.47206615 3.35082482 18.47206615 1.16015625 16.5859375 Z " fill="#4B4990" transform="translate(670.83984375,659.4140625)"/>
<path d="M0 0 C1.26650391 0.00966797 1.26650391 0.00966797 2.55859375 0.01953125 C3.43128906 0.03628906 4.30398438 0.05304687 5.203125 0.0703125 C6.09128906 0.07933594 6.97945313 0.08835937 7.89453125 0.09765625 C10.08100558 0.12116673 12.26692594 0.15402751 14.453125 0.1953125 C17.19767298 9.25114416 19.93627861 18.30874507 22.66730499 27.36866379 C23.93560202 31.57544204 25.20594088 35.781581 26.48095703 39.98632812 C27.71123089 44.04379487 28.93612658 48.10284932 30.15730286 52.16306305 C30.62425877 53.71218938 31.09315298 55.26073281 31.56401062 56.80867767 C32.22293761 58.97608594 32.87495624 61.14546021 33.52539062 63.31542969 C33.89845337 64.55008972 34.27151611 65.78474976 34.65588379 67.05682373 C35.453125 70.1953125 35.453125 70.1953125 35.453125 74.1953125 C21.57465736 74.80165332 21.57465736 74.80165332 17.453125 71.1953125 C16.133125 67.5653125 14.813125 63.9353125 13.453125 60.1953125 C5.533125 59.8653125 -2.386875 59.5353125 -10.546875 59.1953125 C-11.206875 62.1653125 -11.866875 65.1353125 -12.546875 68.1953125 C-14.75835199 71.61953493 -15.67411047 72.90439099 -19.546875 74.1953125 C-21.60832607 74.2643035 -23.67188901 74.27998977 -25.734375 74.2578125 C-26.82105469 74.24878906 -27.90773438 74.23976563 -29.02734375 74.23046875 C-29.85878906 74.21886719 -30.69023437 74.20726562 -31.546875 74.1953125 C-30.86805161 67.14807934 -28.7069943 60.56801409 -26.65234375 53.81640625 C-26.25962834 52.51803932 -25.86707849 51.2196223 -25.47468567 49.92115784 C-24.65368965 47.20941513 -23.82850653 44.49898753 -23.00073242 41.78930664 C-21.94479479 38.33042164 -20.90278786 34.86751179 -19.86431408 31.40334988 C-19.05869607 28.72369504 -18.24397552 26.04687118 -17.42672157 23.37074471 C-16.85137948 21.47932953 -16.28499373 19.58519736 -15.71879578 17.69102478 C-11.50493642 4.01445955 -11.50493642 4.01445955 -6.7071991 1.06394958 C-4.29669585 0.09471885 -2.58903013 -0.03498689 0 0 Z M1.453125 15.1953125 C-1.186875 25.0953125 -3.826875 34.9953125 -6.546875 45.1953125 C-1.266875 45.1953125 4.013125 45.1953125 9.453125 45.1953125 C7.82794717 35.00101518 5.15464871 25.14558113 2.453125 15.1953125 C2.123125 15.1953125 1.793125 15.1953125 1.453125 15.1953125 Z " fill="#4B4990" transform="translate(412.546875,659.8046875)"/>
<path d="M0 0 C1.20366211 0.00483398 1.20366211 0.00483398 2.43164062 0.00976562 C3.68170898 0.02233398 3.68170898 0.02233398 4.95703125 0.03515625 C5.80201172 0.03966797 6.64699219 0.04417969 7.51757812 0.04882812 C9.6015928 0.06060222 11.68557102 0.07853735 13.76953125 0.09765625 C16.67301422 7.45527353 18.93810283 14.98529138 21.21875 22.5546875 C21.64033306 23.94857674 22.06203201 25.34243093 22.48384094 26.73625183 C23.36223612 29.64124489 24.23856027 32.54685294 25.11352539 35.45288086 C26.23532619 39.17776664 27.36338179 42.90072566 28.49309063 46.62321949 C29.36326692 49.49362643 30.22963025 52.36517347 31.09488869 55.23706627 C31.50944169 56.61099118 31.92530537 57.98452132 32.3425045 59.35764503 C32.92328851 61.27084456 33.49828187 63.18579906 34.07299805 65.10083008 C34.56572456 66.73342522 34.56572456 66.73342522 35.06840515 68.39900208 C35.76953125 71.09765625 35.76953125 71.09765625 35.76953125 74.09765625 C22.28489417 74.68679088 22.28489417 74.68679088 17.76953125 71.09765625 C15.58479942 67.02953492 14.68034882 63.6517441 13.76953125 59.09765625 C5.84953125 59.09765625 -2.07046875 59.09765625 -10.23046875 59.09765625 C-10.89046875 62.06765625 -11.55046875 65.03765625 -12.23046875 68.09765625 C-14.44194574 71.52187868 -15.35770422 72.80673474 -19.23046875 74.09765625 C-21.29191982 74.16664725 -23.35548276 74.18233352 -25.41796875 74.16015625 C-26.50464844 74.15113281 -27.59132813 74.14210938 -28.7109375 74.1328125 C-29.54238281 74.12121094 -30.37382813 74.10960937 -31.23046875 74.09765625 C-30.55524032 67.27895606 -28.52002457 60.94354852 -26.51953125 54.41015625 C-26.15072845 53.19368408 -25.78192566 51.97721191 -25.40194702 50.72387695 C-24.62265933 48.15789606 -23.84139236 45.59262466 -23.05664062 43.02832031 C-22.05633346 39.75889477 -21.06418848 36.48706191 -20.07462502 33.21437073 C-19.12283256 30.07005884 -18.16470613 26.9276806 -17.20703125 23.78515625 C-16.67718124 22.03489136 -16.67718124 22.03489136 -16.1366272 20.24926758 C-11.16623905 4.04948397 -11.16623905 4.04948397 -7.23046875 1.09765625 C-4.46481493 0.17577164 -2.84763173 -0.02019597 0 0 Z M1.76953125 16.09765625 C-1.35053274 25.70449359 -4.09697388 35.21620632 -6.23046875 45.09765625 C-0.95046875 45.09765625 4.32953125 45.09765625 9.76953125 45.09765625 C8.00029464 35.28643506 5.35725911 25.71768272 2.76953125 16.09765625 C2.43953125 16.09765625 2.10953125 16.09765625 1.76953125 16.09765625 Z " fill="#4B4990" transform="translate(879.23046875,659.90234375)"/>
<path d="M0 0 C2.02876797 -0.01180917 4.05440101 -0.06093106 6.08251953 -0.11157227 C15.02347989 -0.1602125 22.1238738 0.86768135 29.06933594 6.83349609 C34.74737878 12.95465853 34.83022229 20.36726663 34.67626953 28.27319336 C34.14903506 35.02681583 31.74223973 39.97052204 27.16845703 44.95288086 C20.72557902 50.4112292 11.5916844 50.5892722 3.55517578 50.48803711 C2.86681641 50.48352539 2.17845703 50.47901367 1.46923828 50.47436523 C-0.21048757 50.46270047 -1.89016797 50.44476981 -3.56982422 50.42553711 C-3.52341797 51.6669043 -3.47701172 52.90827148 -3.42919922 54.18725586 C-3.39167001 55.82915881 -3.35527108 57.47108788 -3.31982422 59.11303711 C-3.26955078 60.33796875 -3.26955078 60.33796875 -3.21826172 61.58764648 C-3.151887 65.68628535 -3.22901645 67.86262172 -5.39794922 71.44506836 C-8.73061124 74.48402455 -11.42578551 74.54429086 -15.75732422 74.48803711 C-17.10890625 74.47450195 -17.10890625 74.47450195 -18.48779297 74.46069336 C-19.17486328 74.4490918 -19.86193359 74.43749023 -20.56982422 74.42553711 C-20.66264872 65.92388639 -20.73365175 57.42244865 -20.77707291 48.92041588 C-20.79791669 44.97223338 -20.82617471 41.02439848 -20.87158203 37.07641602 C-20.91515574 33.2638471 -20.93898546 29.45161179 -20.94933319 25.63881302 C-20.95670402 24.1867714 -20.97109778 22.73474732 -20.99274445 21.28284836 C-21.02193398 19.24326378 -21.02577408 17.20504422 -21.02392578 15.1652832 C-21.03280823 14.00612396 -21.04169067 12.84696472 -21.05084229 11.65267944 C-20.46281746 7.7076305 -19.01011805 5.54044625 -16.56982422 2.42553711 C-11.92945369 -0.98845859 -5.49999282 0.01512071 0 0 Z M-2.56982422 14.42553711 C-3.7701233 16.82613528 -3.68442165 18.3191436 -3.66748047 20.99584961 C-3.66425781 21.89174805 -3.66103516 22.78764648 -3.65771484 23.71069336 C-3.64933594 24.6478418 -3.64095703 25.58499023 -3.63232422 26.55053711 C-3.6278125 27.49541992 -3.62330078 28.44030273 -3.61865234 29.41381836 C-3.60684779 31.75112098 -3.5903818 34.08829772 -3.56982422 36.42553711 C3.14650963 36.75345938 8.54948424 36.92892781 14.43017578 33.42553711 C17.04825346 29.2912663 17.10879864 25.17589713 16.43017578 20.42553711 C14.51169191 16.95750856 13.14825013 15.75335366 9.55517578 14.11303711 C5.14753071 13.14335519 1.7250005 12.99392887 -2.56982422 14.42553711 Z " fill="#4B4990" transform="translate(249.56982421875,659.574462890625)"/>
<path d="M0 0 C1.10492798 0.00580078 1.10492798 0.00580078 2.23217773 0.01171875 C7.85531537 0.10057333 13.18820489 0.75387948 18.625 2.25 C18.56412884 3.64699314 18.47511115 5.0427696 18.375 6.4375 C18.32859375 7.21480469 18.2821875 7.99210938 18.234375 8.79296875 C17.37185985 12.27067407 16.32643519 13.86836088 13.625 16.25 C10.6421582 16.81232035 7.76784395 16.63007647 4.75 16.4375 C-3.01689456 15.97487745 -3.01689456 15.97487745 -10.375 18.25 C-11.73243541 20.08982024 -11.73243541 20.08982024 -12.375 22.25 C-12.65601563 22.84296875 -12.93703125 23.4359375 -13.2265625 24.046875 C-16.82966458 33.14561762 -17.02663183 45.41569009 -13.3671875 54.546875 C-11.43252622 57.86778965 -8.72794114 59.57352943 -5.375 61.25 C-3.83584091 61.34727028 -2.29222224 61.37977468 -0.75 61.375 C0.14332031 61.37371094 1.03664063 61.37242187 1.95703125 61.37109375 C4.37893159 61.26116855 6.56696748 60.9116065 8.9375 60.4375 C12.625 60.25 12.625 60.25 15.5625 62.5625 C19.04525921 67.10064079 18.71533612 69.64916043 18.625 75.25 C7.45280366 79.1078026 -8.44713652 79.50032813 -19.2578125 74.4921875 C-27.21422412 69.82403456 -31.11054196 63.93696384 -34.375 55.25 C-37.03422409 41.55579213 -36.88151994 25.35982137 -29.375 13.25 C-22.11927941 2.97106249 -12.14530077 -0.15572681 0 0 Z " fill="#4B4990" transform="translate(962.375,657.75)"/>
<path d="M0 0 C7.35063746 -0.05062952 14.70123011 -0.08570377 22.05200195 -0.10986328 C24.55364665 -0.11993288 27.05527955 -0.13358934 29.55688477 -0.15087891 C33.14862986 -0.17508492 36.7402196 -0.18647346 40.33203125 -0.1953125 C42.01496025 -0.21079636 42.01496025 -0.21079636 43.73188782 -0.22659302 C44.77274033 -0.22674408 45.81359283 -0.22689514 46.88598633 -0.22705078 C47.80309891 -0.231492 48.72021149 -0.23593323 49.66511536 -0.24050903 C52 0 52 0 55 2 C56.45781334 6.37344001 56.0598032 10.39515357 56 15 C49.73 15 43.46 15 37 15 C37.01571045 16.51352051 37.0314209 18.02704102 37.04760742 19.58642578 C37.10197746 25.2108832 37.13637615 30.83531745 37.16479492 36.45996094 C37.17986534 38.89261789 37.20032523 41.32524774 37.22631836 43.7578125 C37.2627774 47.25788061 37.2797442 50.7575889 37.29296875 54.2578125 C37.30845261 55.34240753 37.32393646 56.42700256 37.33988953 57.54446411 C37.34207437 67.3852705 37.34207437 67.3852705 34 72 C30 74 30 74 19 74 C19 54.53 19 35.06 19 15 C14.38 15 9.76 15 5 15 C1 13 1 13 0 11 C-0.07033769 9.12620395 -0.0843022 7.24998898 -0.0625 5.375 C-0.05347656 4.37210938 -0.04445313 3.36921875 -0.03515625 2.3359375 C-0.02355469 1.56507813 -0.01195312 0.79421875 0 0 Z " fill="#4B4990" transform="translate(707,660)"/>
<path d="M0 0 C12.19073231 -0.44062888 12.19073231 -0.44062888 16 3 C18.32826375 6.21522137 18.39711181 9.10830425 18 13 C16.7034255 16.00259359 15.70082165 17.55402258 12.9375 19.3125 C10 20 10 20 0 20 C0 13.4 0 6.8 0 0 Z M6 5 C6 8.3 6 11.6 6 15 C7.65 14.67 9.3 14.34 11 14 C11.67673447 10.59679066 11.67673447 10.59679066 12 7 C11.34 6.34 10.68 5.68 10 5 C8.68 5 7.36 5 6 5 Z " fill="#4B4990" transform="translate(602,751)"/>
<path d="M0 0 C3.4203866 1.17013226 3.91540482 1.87310723 6 5 C6.73965025 9.59271203 6.60961194 13.02462089 4.125 17 C1.36801767 19.5948069 0.51540257 19.96110169 -3.3125 20.25 C-7.24058469 19.98368917 -8.95647943 19.43481646 -12 17 C-14.33067577 13.78144775 -14.46741137 10.89509474 -14 7 C-10.20879221 0.30219956 -7.52092664 -0.59689894 0 0 Z M-6 5 C-6.66 5.66 -7.32 6.32 -8 7 C-7.67673447 10.59679066 -7.67673447 10.59679066 -7 14 C-5.35 14.33 -3.7 14.66 -2 15 C-0.33153266 13.30504044 -0.33153266 13.30504044 1 11 C0.77802187 8.3015411 0.77802187 8.3015411 0 6 C-2.90073181 5.32198966 -2.90073181 5.32198966 -6 5 Z " fill="#4B4A90" transform="translate(493,751)"/>
<path d="M0 0 C10.06206497 -0.3636891 10.06206497 -0.3636891 14.0625 1.1875 C16.45211285 3.42294428 17.27255951 4.79926186 18 8 C17.86023754 11.98323018 17.61410184 14.22213767 15.125 17.375 C10.10228135 21.2159025 7.05764791 20 0 20 C0 13.4 0 6.8 0 0 Z M5 5 C5 8.3 5 11.6 5 15 C6.98 14.67 8.96 14.34 11 14 C11.76716851 11.14921909 11.76716851 11.14921909 12 8 C10.93654948 6.01970318 10.93654948 6.01970318 9 5 C7.68 5 6.36 5 5 5 Z " fill="#4B4991" transform="translate(893,751)"/>
<path d="M0 0 C10.35166568 -0.36970235 10.35166568 -0.36970235 13.3359375 1.33203125 C15 3 15 3 15.375 5.875 C15 9 15 9 13.875 11.6875 C13.58625 12.450625 13.2975 13.21375 13 14 C13.99 15.485 13.99 15.485 15 17 C15 17.99 15 18.98 15 20 C12.1875 20.3125 12.1875 20.3125 9 20 C7.125 17.5 7.125 17.5 6 15 C5.67 16.65 5.34 18.3 5 20 C3.35 20 1.7 20 0 20 C0 13.4 0 6.8 0 0 Z M5 5 C5 5.99 5 6.98 5 8 C6.32 8 7.64 8 9 8 C9 7.01 9 6.02 9 5 C7.68 5 6.36 5 5 5 Z " fill="#4B4990" transform="translate(806,751)"/>
<path d="M0 0 C1.98 0 3.96 0 6 0 C6.33 1.65 6.66 3.3 7 5 C7.53625 4.175 8.0725 3.35 8.625 2.5 C11 0 11 0 14.25 -0.3125 C15.1575 -0.209375 16.065 -0.10625 17 0 C15.94496547 2.27238207 14.93701762 4.07464578 13.3125 6 C11.81516697 7.86293016 11.81516697 7.86293016 12.0625 9.875 C13.36144288 12.81927053 15.20488297 15.33627795 17 18 C17 18.66 17 19.32 17 20 C14.25 20.3125 14.25 20.3125 11 20 C8.625 17.5 8.625 17.5 7 15 C6.67 16.65 6.34 18.3 6 20 C4.02 20 2.04 20 0 20 C0 13.4 0 6.8 0 0 Z " fill="#4B4A90" transform="translate(545,751)"/>
<path d="M0 0 C1.98 0 3.96 0 6 0 C8.87884807 6.59278183 11.50865808 12.95001999 13 20 C11.02 20 9.04 20 7 20 C6.67 18.68 6.34 17.36 6 16 C4.02 16 2.04 16 0 16 C-0.33 17.32 -0.66 18.64 -1 20 C-2.98 20 -4.96 20 -7 20 C-5.27068234 12.99102311 -3.16032658 6.49711809 0 0 Z M2 9 C2 9.99 2 10.98 2 12 C2.66 12 3.32 12 4 12 C4 11.01 4 10.02 4 9 C3.34 9 2.68 9 2 9 Z " fill="#4C4A8F" transform="translate(867,751)"/>
<path d="M0 0 C2.31 0 4.62 0 7 0 C8.00577013 2.76886123 9.00480147 5.53984104 10 8.3125 C10.28617188 9.09818359 10.57234375 9.88386719 10.8671875 10.69335938 C11.13789062 11.45068359 11.40859375 12.20800781 11.6875 12.98828125 C11.93886719 13.68477783 12.19023438 14.38127441 12.44921875 15.09887695 C13 17 13 17 13 20 C11.02 20 9.04 20 7 20 C6.67 19.01 6.34 18.02 6 17 C4.02 16.67 2.04 16.34 0 16 C-0.33 17.32 -0.66 18.64 -1 20 C-2.98 20 -4.96 20 -7 20 C-6.02327683 17.04085422 -5.04320621 14.08282789 -4.0625 11.125 C-3.78470703 10.28324219 -3.50691406 9.44148437 -3.22070312 8.57421875 C-2.95322266 7.76855469 -2.68574219 6.96289062 -2.41015625 6.1328125 C-2.16402588 5.38918457 -1.91789551 4.64555664 -1.66430664 3.87939453 C-1 2 -1 2 0 0 Z M3 8 C2.67 9.32 2.34 10.64 2 12 C2.99 11.67 3.98 11.34 5 11 C4.34 10.01 3.68 9.02 3 8 Z " fill="#4A4991" transform="translate(732,751)"/>
<path d="M0 0 C2.31 0 4.62 0 7 0 C8.00816056 2.58041096 9.0067111 5.16386944 10 7.75 C10.42925781 8.84441406 10.42925781 8.84441406 10.8671875 9.9609375 C11.13789063 10.66992188 11.40859375 11.37890625 11.6875 12.109375 C11.93886719 12.75874023 12.19023437 13.40810547 12.44921875 14.07714844 C13 16 13 16 13 20 C11.35 20 9.7 20 8 20 C7.67 18.68 7.34 17.36 7 16 C5.02 16.33 3.04 16.66 1 17 C0.67 17.99 0.34 18.98 0 20 C-1.98 20 -3.96 20 -6 20 C-4.63125844 13.04223041 -2.5466871 6.61396893 0 0 Z M3 8 C2.67 9.32 2.34 10.64 2 12 C2.99 12 3.98 12 5 12 C4.34 10.68 3.68 9.36 3 8 Z " fill="#4C4A90" transform="translate(350,751)"/>
<path d="M0 0 C3 1.8125 3 1.8125 5 4 C5 4.99 5 5.98 5 7 C1.14993652 7.08953636 -2.23647492 6.75270502 -6 6 C-7.35618499 7.12534105 -7.35618499 7.12534105 -7.0625 10.0625 C-7.041875 11.031875 -7.02125 12.00125 -7 13 C-4.03 13.495 -4.03 13.495 -1 14 C-1 13.34 -1 12.68 -1 12 C0.98 12 2.96 12 5 12 C4.73852205 15.22489472 4.39459008 16.6300718 2 18.875 C-2.1063974 20.41489902 -5.79634074 20.24377933 -10 19 C-12.10611883 17.42998415 -12.86999766 16.43937501 -13.6171875 13.9140625 C-14.04837925 10.08560244 -14.28502209 7.66980191 -12.75 4.0625 C-9.10511157 -0.23326136 -5.37842846 -0.86850109 0 0 Z " fill="#4B4990" transform="translate(526,751)"/>
<path d="M0 0 C2.5 1.875 2.5 1.875 4 4 C4 4.66 4 5.32 4 6 C1.36 6 -1.28 6 -4 6 C-3.4225 6.29132812 -2.845 6.58265625 -2.25 6.8828125 C0.00446087 8.12746277 2.02171413 9.34856136 4 11 C4.75 14.125 4.75 14.125 4 17 C2.5625 18.9375 2.5625 18.9375 0 20 C-3.09607978 20.0824888 -6.03055448 19.90573821 -9 19 C-11 16 -11 16 -11 13 C-9.02 13 -7.04 13 -5 13 C-5 13.66 -5 14.32 -5 15 C-4.01 15 -3.02 15 -2 15 C-2.92256283 12.56877817 -2.92256283 12.56877817 -6.5 11.8125 C-10 10 -10 10 -11.125 6.5 C-11 3 -11 3 -10.0625 1.0625 C-6.79061756 -0.6230152 -3.54612299 -0.66356024 0 0 Z " fill="#4D4B8F" transform="translate(681,751)"/>
<path d="M0 0 C2 1.3125 2 1.3125 3 3 C3 3.99 3 4.98 3 6 C0.33333333 6 -2.33333333 6 -5 6 C-2.36 7.32 0.28 8.64 3 10 C3.48468708 16.42210386 3.48468708 16.42210386 1.375 18.9375 C-1.75621331 20.33830596 -3.60021945 20.55506621 -7 20 C-9.875 17.625 -9.875 17.625 -12 15 C-12 14.34 -12 13.68 -12 13 C-6.375 12.75 -6.375 12.75 -3 15 C-3.89955142 12.67241093 -3.89955142 12.67241093 -6.9375 11.6875 C-10 10 -10 10 -11.5 7.5625 C-12 5 -12 5 -11.25 2.75 C-8.54464366 -1.03749888 -4.24994545 -0.49539241 0 0 Z " fill="#4C4A8F" transform="translate(300,751)"/>
<path d="M0 0 C2 1.3125 2 1.3125 3 3 C3 3.99 3 4.98 3 6 C0.33333333 6 -2.33333333 6 -5 6 C-4.15115234 6.36351562 -4.15115234 6.36351562 -3.28515625 6.734375 C-2.55167969 7.06953125 -1.81820313 7.4046875 -1.0625 7.75 C-0.33160156 8.07484375 0.39929688 8.3996875 1.15234375 8.734375 C3 10 3 10 3.8359375 11.97265625 C4.08242034 15.01847988 2.75726778 16.5918923 1 19 C-1.80915474 20.40457737 -3.88810534 20.24895157 -7 20 C-9.70191251 18.53950675 -10.74963003 17.73024575 -11.75 14.8125 C-11.8325 14.214375 -11.915 13.61625 -12 13 C-6.375 12.75 -6.375 12.75 -3 15 C-4.50349397 11.99301207 -7.0418948 11.41742541 -10 10 C-11 9 -11 9 -11.25 5.5625 C-11.1675 4.386875 -11.085 3.21125 -11 2 C-7.20675288 -0.52883142 -4.45092058 -0.61200158 0 0 Z " fill="#4C4A90" transform="translate(435,751)"/>
<path d="M0 0 C3.96 0 7.92 0 12 0 C12 1.65 12 3.3 12 5 C9.69 5 7.38 5 5 5 C5 5.99 5 6.98 5 8 C7.31 8 9.62 8 12 8 C12 9.32 12 10.64 12 12 C9.69 12 7.38 12 5 12 C5 12.99 5 13.98 5 15 C7.31 15 9.62 15 12 15 C12 16.65 12 18.3 12 20 C8.04 20 4.08 20 0 20 C0 13.4 0 6.8 0 0 Z " fill="#4B4A90" transform="translate(835,751)"/>
<path d="M0 0 C3.96 0 7.92 0 12 0 C12 1.65 12 3.3 12 5 C9.69 5 7.38 5 5 5 C5 5.99 5 6.98 5 8 C6.98 8 8.96 8 11 8 C11 9.32 11 10.64 11 12 C9.02 12 7.04 12 5 12 C5 12.99 5 13.98 5 15 C7.31 15 9.62 15 12 15 C12 16.65 12 18.3 12 20 C8.04 20 4.08 20 0 20 C0 13.4 0 6.8 0 0 Z " fill="#4B4A90" transform="translate(576,751)"/>
<path d="M0 0 C1.98 0 3.96 0 6 0 C6.66 1.98 7.32 3.96 8 6 C8.66 6 9.32 6 10 6 C10.66 4.02 11.32 2.04 12 0 C13.98 0 15.96 0 18 0 C17.0262811 3.14586106 16.01352183 5.97511983 14.4375 8.875 C12.67621638 12.70387743 12.36068569 15.81604605 12 20 C10.02 20 8.04 20 6 20 C5.85304688 19.05640625 5.85304688 19.05640625 5.703125 18.09375 C4.64513576 12.03767365 2.8969889 7.40771261 0 2 C0 1.34 0 0.68 0 0 Z " fill="#4B4991" transform="translate(757,751)"/>
<path d="M0 0 C1.98 0 3.96 0 6 0 C6.66 1.98 7.32 3.96 8 6 C8.66 6 9.32 6 10 6 C10.66 4.02 11.32 2.04 12 0 C13.98 0 15.96 0 18 0 C17.0262811 3.14586106 16.01352183 5.97511983 14.4375 8.875 C12.67621638 12.70387743 12.36068569 15.81604605 12 20 C10.02 20 8.04 20 6 20 C5.85304688 19.05640625 5.85304688 19.05640625 5.703125 18.09375 C4.64513576 12.03767365 2.8969889 7.40771261 0 2 C0 1.34 0 0.68 0 0 Z " fill="#4B4990" transform="translate(923,751)"/>
<path d="M0 0 C2.8125 -0.3125 2.8125 -0.3125 6 0 C7.875 2.5 7.875 2.5 9 5 C9.350625 4.175 9.70125 3.35 10.0625 2.5 C10.701875 1.675 11.34125 0.85 12 0 C15.62109375 -0.15625 15.62109375 -0.15625 19 0 C18.57847656 0.85722656 18.15695312 1.71445312 17.72265625 2.59765625 C17.17480469 3.74105469 16.62695312 4.88445313 16.0625 6.0625 C15.24458984 7.75052734 15.24458984 7.75052734 14.41015625 9.47265625 C12.98396723 13.04010413 12.38335831 16.19068005 12 20 C10.35 20 8.7 20 7 20 C6.6596875 18.0509375 6.6596875 18.0509375 6.3125 16.0625 C5.31364661 11.4546508 3.46711304 7.85217656 1.0234375 3.84765625 C0 2 0 2 0 0 Z " fill="#4A4991" transform="translate(375,751)"/>
<path d="M0 0 C5.28 0 10.56 0 16 0 C16 1.65 16 3.3 16 5 C14.35 5 12.7 5 11 5 C11 9.95 11 14.9 11 20 C9.02 20 7.04 20 5 20 C5 15.05 5 10.1 5 5 C3.35 5 1.7 5 0 5 C0 3.35 0 1.7 0 0 Z " fill="#4B4A8F" transform="translate(451,751)"/>
<path d="M0 0 C5.28 0 10.56 0 16 0 C16 1.65 16 3.3 16 5 C14.35 5 12.7 5 11 5 C11 9.95 11 14.9 11 20 C9.02 20 7.04 20 5 20 C5 15.05 5 10.1 5 5 C3.35 5 1.7 5 0 5 C0 3.35 0 1.7 0 0 Z " fill="#4C4A90" transform="translate(316,751)"/>
<path d="M0 0 C4.95 0 9.9 0 15 0 C15 1.65 15 3.3 15 5 C13.35 5 11.7 5 10 5 C10 9.95 10 14.9 10 20 C8.35 20 6.7 20 5 20 C5 15.05 5 10.1 5 5 C3.35 5 1.7 5 0 5 C0 3.35 0 1.7 0 0 Z " fill="#4B4A90" transform="translate(698,751)"/>
<path d="M0 0 C1.65 0 3.3 0 5 0 C4.34 2.64 3.68 5.28 3 8 C1.35 8 -0.3 8 -2 8 C-1.34 5.36 -0.68 2.72 0 0 Z " fill="#4A4892" transform="translate(634,766)"/>
<path d="M0 0 C1.67542976 0.28604898 3.34385343 0.61781233 5 1 C4.67 2.65 4.34 4.3 4 6 C2.35 5.67 0.7 5.34 -1 5 C-1 1 -1 1 0 0 Z " fill="#504F8D" transform="translate(955,765)"/>
</svg>
