<?xml version="1.0" encoding="UTF-8"?>
<svg version="1.1" xmlns="http://www.w3.org/2000/svg" width="420" height="436">
<path d="M0 0 C1.17175781 0.92232422 1.17175781 0.92232422 2.3671875 1.86328125 C3.12773437 2.44722656 3.88828125 3.03117187 4.671875 3.6328125 C17.50099129 14.17577139 26.38287153 30.37992329 28.3671875 46.86328125 C28.90229149 55.51070837 28.7170458 64.19261867 28.66015625 72.8515625 C28.65455268 75.36646775 28.65028618 77.8813763 28.64729309 80.39628601 C28.63706421 86.30685993 28.61349415 92.2172592 28.58324462 98.12776202 C28.54620359 105.52850368 28.53026273 112.92926727 28.51367188 120.33007812 C28.48161313 133.50789825 28.43107614 146.68557892 28.3671875 159.86328125 C26.47474255 159.738064 24.58292208 159.60339018 22.69140625 159.46484375 C21.63783936 159.39088379 20.58427246 159.31692383 19.4987793 159.24072266 C7.99934305 157.85472995 -0.90661945 150.55426344 -8.1328125 141.90625 C-14.67977379 132.98942512 -16.75443719 122.90390313 -16.75878906 111.98510742 C-16.7606572 111.33690536 -16.76252533 110.68870331 -16.76445007 110.02085876 C-16.76842508 108.62574342 -16.77052622 107.23062168 -16.77091217 105.83550072 C-16.77436737 102.85381487 -16.79577711 99.87233946 -16.81614304 96.89072895 C-16.85394633 91.35575196 -16.88543159 85.82101007 -16.88330078 80.28588867 C-16.882509 76.41954784 -16.90606635 72.55399506 -16.9451828 68.68786049 C-16.95556662 67.22525905 -16.95722361 65.76256581 -16.94953156 64.29994774 C-16.90848755 55.63185505 -17.32544232 48.08984931 -22.6328125 40.86328125 C-28.21458178 35.4981054 -33.72888349 32.84723434 -41.5078125 32.55078125 C-48.27560186 32.71337078 -54.18070769 34.58042956 -59.26130676 39.25027466 C-65.54852091 46.64456954 -66.37184323 54.50192513 -66.33984375 63.87109375 C-66.35496506 65.07772675 -66.37008636 66.28435974 -66.38566589 67.52755737 C-66.42834911 71.34799166 -66.43736285 75.16763284 -66.4453125 78.98828125 C-66.46847163 81.59246872 -66.49383988 84.19663753 -66.52148438 86.80078125 C-66.58826831 93.15537362 -66.6094311 99.50779129 -66.6328125 105.86328125 C-81.4828125 105.86328125 -96.3328125 105.86328125 -111.6328125 105.86328125 C-111.69602707 98.40162082 -111.7560952 90.94095147 -111.78806305 83.47925568 C-111.80379113 80.00322303 -111.82474563 76.52741608 -111.85913086 73.05151367 C-111.89848624 69.04734327 -111.91261662 65.04340537 -111.92578125 61.0390625 C-111.94126511 59.81560623 -111.95674896 58.59214996 -111.97270203 57.33161926 C-111.97483607 46.21615696 -110.22454665 35.64289416 -105.0078125 25.73828125 C-104.48731323 24.73172485 -104.48731323 24.73172485 -103.95629883 23.70483398 C-94.74648336 6.50920131 -79.67584732 -5.16984756 -61.1953125 -11.01171875 C-40.57356646 -16.84040547 -17.14287677 -12.78869561 0 0 Z " fill="#3586B4" transform="translate(251.6328125,26.13671875)"/>
<path d="M0 0 C1.43502146 -0.01611193 2.87009549 -0.02758407 4.30517578 -0.03710938 C5.10432404 -0.0439978 5.90347229 -0.05088623 6.72683716 -0.0579834 C16.36764679 0.18793251 25.09301379 5.67655333 32 12 C41.41248752 22.44074246 45.09961664 33.87472077 45.1418457 47.80224609 C45.14888016 49.11405853 45.15591461 50.42587097 45.16316223 51.7774353 C45.16497812 52.46902111 45.16679401 53.16060692 45.16866493 53.87314987 C45.17590423 56.0605975 45.19162402 58.24783021 45.21000671 60.43521118 C45.26213478 66.6501373 45.31042259 72.86493793 45.32592773 79.08007812 C45.33606253 82.89447061 45.36551579 86.70830788 45.40724754 90.52248001 C45.41947557 91.96636362 45.42469394 93.41032585 45.42244911 94.85425949 C45.41148847 104.20260651 45.88326021 111.79897971 51.82421875 119.3046875 C58.05092503 124.55235191 63.78092443 127.43211171 72.0625 126.9375 C80.23012871 125.72373474 85.18507158 122.36412707 90.5546875 116.1953125 C94.75021401 109.8226479 94.34016763 102.95967494 94.4140625 95.6015625 C94.43342865 94.41146576 94.4527948 93.22136902 94.4727478 91.99520874 C94.53238503 88.20521139 94.57886616 84.41518341 94.625 80.625 C94.66319431 78.05076822 94.70224689 75.47654903 94.7421875 72.90234375 C94.83968405 66.60162906 94.91938059 60.3010436 95 54 C109.85 54 124.7 54 140 54 C140.0843758 61.42741451 140.16445087 68.85304739 140.20700073 76.28052521 C140.22793997 79.74085949 140.25581629 83.20078835 140.30175781 86.66088867 C140.60863894 110.40959574 139.43930244 130.35749208 123 149 C122.34386719 149.75023437 121.68773437 150.50046875 121.01171875 151.2734375 C108.10999942 165.09502348 90.67046387 171.92473768 72 173 C52.26365514 172.97880092 34.4706771 166.6068085 20.484375 152.59375 C19.66453125 151.7378125 18.8446875 150.881875 18 150 C17.07960937 149.05640625 17.07960937 149.05640625 16.140625 148.09375 C6.5902173 137.657222 -0.13610759 122.36072026 -0.12025452 108.10881042 C-0.12162918 107.1511377 -0.12300385 106.19346497 -0.12442017 105.20677185 C-0.12082489 104.16811478 -0.11722961 103.1294577 -0.11352539 102.05932617 C-0.11367142 100.95644257 -0.11381744 99.85355896 -0.1139679 98.71725464 C-0.11327184 95.07580593 -0.10549373 91.43440851 -0.09765625 87.79296875 C-0.09579098 85.26662728 -0.09436759 82.74028544 -0.09336853 80.21394348 C-0.08994192 74.24650924 -0.08206226 68.27909699 -0.07201904 62.31167156 C-0.06083089 55.51604054 -0.05534065 48.72040864 -0.05032361 41.92477071 C-0.03987891 27.94983698 -0.02229632 13.97491949 0 0 Z " fill="#406BA4" transform="translate(140,237)"/>
<path d="M0 0 C1.62550278 -0.00021904 1.62550278 -0.00021904 3.28384399 -0.0004425 C6.84948764 0.00025163 10.41507842 0.00802063 13.98071289 0.01586914 C16.45935538 0.01773509 18.93799824 0.01915816 21.41664124 0.02015686 C27.92840602 0.02396807 34.44014836 0.03378642 40.9519043 0.04486084 C47.60147681 0.0556481 54.25105588 0.05966092 60.90063477 0.06469727 C73.93905578 0.07540995 86.97746126 0.09227634 100.01586914 0.11352539 C99.86705899 1.88117183 99.71488418 3.64853524 99.5612793 5.41577148 C99.47689606 6.40000092 99.39251282 7.38423035 99.30557251 8.39828491 C98.05448343 20.12409856 91.00992597 29.20015475 82.17993164 36.54711914 C71.45334246 44.31131095 60.43327055 45.40029919 47.56086731 45.38792038 C45.31436803 45.38694321 43.06833184 45.40003462 40.82189941 45.41690063 C34.44144166 45.46282409 28.06103771 45.48777206 21.68041992 45.49438477 C17.76001875 45.49942433 13.84010991 45.52378741 9.9198761 45.55971146 C8.43690458 45.56944381 6.95386482 45.57187762 5.47087097 45.56653976 C-2.74550613 45.53833746 -9.7743558 45.77652144 -16.98413086 50.11352539 C-17.89163086 50.64977539 -18.79913086 51.18602539 -19.73413086 51.73852539 C-24.98011387 57.2759519 -27.29896669 63.12285208 -27.54663086 70.73852539 C-27.13529997 79.72452326 -24.08560809 84.58138147 -17.57006836 90.57055664 C-9.97789665 95.10062888 -1.70929555 95.57226913 6.92993164 95.62524414 C8.02558441 95.64319534 9.12123718 95.66114655 10.25009155 95.67964172 C13.71364615 95.73337081 17.17706593 95.76752027 20.64086914 95.80102539 C23.004169 95.83423145 25.36745116 95.86872411 27.73071289 95.90454102 C33.49244704 95.99147244 39.25358888 96.05186261 45.01586914 96.11352539 C45.01586914 110.63352539 45.01586914 125.15352539 45.01586914 140.11352539 C37.4067018 140.17670113 29.79850251 140.23677431 22.18930054 140.26877594 C18.64472048 140.28451839 15.10036099 140.30550068 11.5559082 140.33984375 C7.47483368 140.37913201 3.39398719 140.39331765 -0.68725586 140.40649414 C-2.56299286 140.42971992 -2.56299286 140.42971992 -4.47662354 140.45341492 C-15.33264087 140.45546425 -25.27523829 138.56457757 -34.98413086 133.61352539 C-35.65492676 133.27458252 -36.32572266 132.93563965 -37.0168457 132.58642578 C-44.047878 128.8401647 -49.50633122 123.83248603 -54.98413086 118.11352539 C-55.90452148 117.16993164 -55.90452148 117.16993164 -56.84350586 116.20727539 C-70.87965612 100.86880191 -73.66271879 81.67272649 -73.10717773 61.69018555 C-72.30965694 44.98972043 -62.2117102 28.98400027 -50.46069336 17.68774414 C-35.88288148 4.96956515 -19.03933394 -0.06758888 0 0 Z " fill="#3782B2" transform="translate(84.984130859375,140.886474609375)"/>
<path d="M0 0 C7.7192573 -0.06924251 15.43741674 -0.12886659 23.15673828 -0.16479492 C25.77721834 -0.17978844 28.39767371 -0.20019002 31.01806641 -0.22631836 C34.80637748 -0.2631191 38.59435393 -0.27982142 42.3828125 -0.29296875 C43.53548615 -0.30845261 44.68815979 -0.32393646 45.87576294 -0.33988953 C63.04743265 -0.34336329 78.47737954 4.35595717 92 15 C92.76054687 15.58394531 93.52109375 16.16789062 94.3046875 16.76953125 C107.3306361 27.4742468 115.58776702 43.4292095 118 60 C119.74154864 80.04040119 116.01081803 99.02057584 102.89453125 114.8515625 C102.26933594 115.56054688 101.64414062 116.26953125 101 117 C100.01580078 118.12535156 100.01580078 118.12535156 99.01171875 119.2734375 C88.67967406 130.3421362 73.0380923 139.33465308 57.58876324 140.12304783 C56.74532266 140.12212604 55.90188208 140.12120424 55.03288269 140.12025452 C54.05838165 140.12162918 53.08388062 140.12300385 52.07984924 140.12442017 C51.02249069 140.12082489 49.96513214 140.11722961 48.87573242 140.11352539 C47.75334167 140.11367142 46.63095093 140.11381744 45.47454834 140.1139679 C41.76816875 140.11327176 38.06183955 140.10549328 34.35546875 140.09765625 C31.78428678 140.09579101 29.21310445 140.09436761 26.641922 140.09336853 C20.56824059 140.08994173 14.49457995 140.08206183 8.42090636 140.07201904 C1.50435862 140.06083146 -5.41218999 140.05534079 -12.32874453 140.05032361 C-26.55250604 140.0398785 -40.77625238 140.02229555 -55 140 C-54.73389973 137.79809125 -54.45377859 135.59787475 -54.16796875 133.3984375 C-54.01352295 132.17302246 -53.85907715 130.94760742 -53.69995117 129.68505859 C-51.74279037 119.38112239 -45.73634825 110.37727498 -37.4609375 104.0625 C-27.15326156 97.09393035 -17.75951232 95.56215067 -5.46983337 95.58930969 C-3.23127565 95.59385139 -0.99348239 95.57961278 1.24499512 95.56091309 C6.80011285 95.51824671 12.35520873 95.50692773 17.91046143 95.49468994 C22.62049263 95.48309271 27.33017078 95.45934339 32.04005432 95.41999817 C34.22799271 95.4065767 36.41543127 95.41057008 38.60339355 95.41540527 C49.23382816 95.37327697 58.43241551 94.59870069 66.3046875 86.93359375 C71.62400476 80.86663052 72.73049934 75.30188494 72.44140625 67.25390625 C71.48410046 60.19695293 68.6374679 54.94071339 63.0625 50.5 C56.13305567 45.60527957 49.00170019 45.66969302 40.8203125 45.5859375 C39.6524118 45.56657135 38.48451111 45.5472052 37.28121948 45.5272522 C33.56255322 45.46762339 29.84385572 45.42113726 26.125 45.375 C23.59894507 45.33680491 21.07290295 45.29775229 18.546875 45.2578125 C12.36465117 45.16032671 6.18255864 45.08062362 0 45 C0 30.15 0 15.3 0 0 Z " fill="#3E6FA7" transform="translate(290,141)"/>
</svg>
